<?xml version="1.0" encoding="utf-8"?>
<!-- Generator: Adobe Illustrator 24.3.0, SVG Export Plug-In . SVG Version: 6.00 Build 0)  -->
<svg version="1.1" id="Vrstva_1" xmlns="http://www.w3.org/2000/svg" xmlns:xlink="http://www.w3.org/1999/xlink" x="0px" y="0px"
	 viewBox="0 0 322.55 322.55" enable-background="new 0 0 322.55 322.55" xml:space="preserve">
<g>
	<linearGradient id="SVGID_1_" gradientUnits="userSpaceOnUse" x1="109.6801" y1="320.9978" x2="131.4296" y2="29.5534">
		<stop  offset="0" style="stop-color:#6B3BE1"/>
		<stop  offset="0.9978" style="stop-color:#2A76F3"/>
	</linearGradient>
	<path fill="url(#SVGID_1_)" d="M81.809,161.328c0-0.018-0.001-0.035-0.001-0.053l0,0v0l0,0c0-14.588,3.935-28.255,10.795-40.006
		c-37.529,23.093-62.555,64.541-62.555,111.838c0,1.218,0.033,2.428,0.067,3.637c26.135,45.322,75.084,75.83,131.159,75.83
		c12.377,0,24.402-1.497,35.916-4.301C130.987,292.153,81.834,232.488,81.809,161.328z"/>
	<linearGradient id="SVGID_2_" gradientUnits="userSpaceOnUse" x1="91.0363" y1="319.6065" x2="112.7859" y2="28.1621">
		<stop  offset="0" style="stop-color:#6B3BE1"/>
		<stop  offset="0.9978" style="stop-color:#2A76F3"/>
	</linearGradient>
	<path fill="url(#SVGID_2_)" d="M161.275,81.808L161.275,81.808c14.588,0,28.255,3.935,40.006,10.795
		C178.187,55.074,136.74,30.048,89.443,30.048c-1.218,0-2.427,0.033-3.637,0.067C40.484,56.25,9.976,105.199,9.976,161.275
		c0,12.377,1.497,24.402,4.301,35.916C30.401,130.971,90.092,81.808,161.275,81.808z"/>
	<linearGradient id="SVGID_3_" gradientUnits="userSpaceOnUse" x1="188.5914" y1="326.8867" x2="210.341" y2="35.4423">
		<stop  offset="0" style="stop-color:#6B3BE1"/>
		<stop  offset="0.9978" style="stop-color:#2A76F3"/>
	</linearGradient>
	<path fill="url(#SVGID_3_)" d="M240.742,161.275L240.742,161.275L240.742,161.275c0,14.588-3.935,28.255-10.795,40.005
		c37.529-23.093,62.555-64.541,62.555-111.838c0-1.218-0.033-2.427-0.067-3.637C266.3,40.484,217.351,9.976,161.275,9.976
		c-12.377,0-24.402,1.497-35.916,4.301C191.579,30.401,240.742,90.092,240.742,161.275z"/>
	<linearGradient id="SVGID_4_" gradientUnits="userSpaceOnUse" x1="207.2351" y1="328.278" x2="228.9847" y2="36.8337">
		<stop  offset="0" style="stop-color:#6B3BE1"/>
		<stop  offset="0.9978" style="stop-color:#2A76F3"/>
	</linearGradient>
	<path fill="url(#SVGID_4_)" d="M163.327,240.716c-0.682,0.017-1.366,0.026-2.052,0.026c-14.588,0-28.255-3.935-40.005-10.795
		c23.093,37.529,64.54,62.555,111.838,62.555c1.218,0,2.427-0.033,3.637-0.067c45.322-26.135,75.83-75.084,75.83-131.159
		c0-12.377-1.497-24.402-4.301-35.916C292.304,190.941,233.602,239.78,163.327,240.716z"/>
</g>
</svg>
